<svg xmlns="http://www.w3.org/2000/svg" viewBox="0 0 760 200" role="img" aria-label="Hanova Consultancy">
  <defs>
    <linearGradient id="hNavy" x1="0" y1="0" x2="1" y2="1">
      <stop offset="0%"  stop-color="#27466F"/>
      <stop offset="100%" stop-color="#16294A"/>
    </linearGradient>
    <linearGradient id="hTeal" x1="0" y1="1" x2="1" y2="0">
      <stop offset="0%"  stop-color="#159E80"/>
      <stop offset="100%" stop-color="#3FD9B4"/>
    </linearGradient>
  </defs>

  <!-- Mark -->
  <g transform="translate(0,0)">
    <path d="M 48 24 L 80 28 L 80 168 L 48 172 Z" fill="url(#hNavy)"/>
    <path d="M 152 24 L 120 28 L 120 168 L 152 172 Z" fill="url(#hNavy)"/>
    <path d="M 80 92 Q 100 116 120 92 L 120 108 Q 100 132 80 108 Z" fill="url(#hTeal)"/>
    <path d="M 60 152 L 78 130 L 92 142 L 110 110 L 124 120 L 148 78"
          fill="none" stroke="url(#hTeal)" stroke-width="9"
          stroke-linecap="round" stroke-linejoin="round"/>
    <path d="M 138 70 L 158 68 L 154 88 Z" fill="#3FD9B4"/>
  </g>

  <!-- Wordmark -->
  <g transform="translate(210,0)">
    <text x="0" y="118"
          font-family="'Cormorant Garamond', Georgia, serif"
          font-weight="600" font-size="92" letter-spacing="6"
          fill="#16294A">HANOVA</text>
    <line x1="0" y1="138" x2="430" y2="138" stroke="#3FD9B4" stroke-width="2"/>
    <text x="64" y="170"
          font-family="'DM Sans', system-ui, sans-serif"
          font-weight="500" font-size="20" letter-spacing="14"
          fill="#16294A">CONSULTANCY</text>
  </g>
</svg>
